<svg width="242" height="717" viewBox="0 0 242 717" fill="none" xmlns="http://www.w3.org/2000/svg">
<path d="M85.2454 715.978C10.1366 680.562 -41.0974 637.91 48.7321 627.799M48.7321 627.799C64.4432 626.03 84.4694 625.257 109.438 625.692C248.311 628.111 240.35 597.683 189.279 564.416M48.7321 627.799C63.0869 637.439 81.2769 647.309 101.136 656.673M48.7321 627.799C8.79591 600.977 -1.45549 575.932 64.6227 568.494M189.279 564.416C173.822 554.348 154.415 544.019 133.936 534.263M189.279 564.416C172.786 566.121 151.705 566.847 125.328 566.387C100.36 565.952 80.3338 566.725 64.6227 568.494M189.279 564.416C259.622 557.145 246.54 532.06 205.17 505.112M64.6227 568.494C78.9775 578.135 97.1675 588.005 117.027 597.369M64.6227 568.494C24.6865 541.673 14.4351 516.628 80.5133 509.189M205.17 505.112C189.712 495.043 170.306 484.715 149.826 474.958M205.17 505.112C188.676 506.817 167.596 507.542 141.219 507.083C116.251 506.648 96.2244 507.421 80.5133 509.189M205.17 505.112C275.513 497.841 262.431 472.755 221.06 445.807M80.5133 509.189C94.8681 518.83 113.058 528.7 132.917 538.064M80.5133 509.189C40.5771 482.368 30.3257 457.323 96.404 449.885M221.06 445.807C205.603 435.739 186.197 425.41 165.717 415.654M221.06 445.807C204.567 447.512 183.487 448.238 157.109 447.778C132.141 447.343 112.115 448.116 96.404 449.885M221.06 445.807C291.403 438.536 278.321 413.451 236.951 386.503M96.404 449.885C110.759 459.526 128.949 469.396 148.808 478.76M96.404 449.885C56.4677 423.064 46.2163 398.019 112.295 390.58M236.951 386.503C221.494 376.434 202.087 366.106 181.608 356.349M236.951 386.503C220.457 388.208 199.377 388.933 173 388.474C148.032 388.039 128.006 388.812 112.295 390.58M236.951 386.503C307.294 379.232 294.212 354.146 252.842 327.198M112.295 390.58C126.649 400.221 144.839 410.091 164.698 419.455M112.295 390.58C72.3583 363.759 62.1069 338.714 128.185 331.276M252.842 327.198C237.384 317.13 217.978 306.801 197.498 297.045M252.842 327.198C236.348 328.903 215.268 329.629 188.891 329.169C163.922 328.734 143.896 329.507 128.185 331.276M252.842 327.198C323.185 319.927 310.102 294.842 268.732 267.894M128.185 331.276C142.54 340.916 160.73 350.786 180.589 360.151M128.185 331.276C88.2489 304.455 77.9975 279.409 144.076 271.971M268.732 267.894C253.275 257.825 233.868 247.497 213.389 237.74M268.732 267.894C252.239 269.599 231.159 270.324 204.781 269.865C179.813 269.43 159.787 270.203 144.076 271.971M268.732 267.894C339.075 260.623 325.993 235.537 284.623 208.589M144.076 271.971C158.431 281.612 176.621 291.482 196.48 300.846M144.076 271.971C104.14 245.15 93.8881 220.105 159.966 212.667M284.623 208.589C269.165 198.521 249.759 188.192 229.28 178.436M284.623 208.589C268.129 210.294 247.049 211.02 220.672 210.56C195.704 210.125 175.677 210.898 159.966 212.667M284.623 208.589C354.966 201.318 341.884 176.232 300.513 149.285M159.966 212.667C174.321 222.307 192.511 232.177 212.37 241.542M159.966 212.667C120.03 185.846 109.779 160.8 175.857 153.362M300.513 149.285C285.056 139.216 265.65 128.887 245.17 119.131M300.513 149.285C284.02 150.99 262.94 151.715 236.562 151.255C211.594 150.821 191.568 151.594 175.857 153.362M300.513 149.285C370.857 142.014 357.774 116.928 316.404 89.9801M175.857 153.362C190.212 163.003 208.402 172.873 228.261 182.237M175.857 153.362C126.425 120.164 122.473 89.6864 252.453 91.9509C278.83 92.4105 299.91 91.685 316.404 89.9801M316.404 89.9801C300.947 79.9115 281.54 69.5829 261.061 59.8264M316.404 89.9801C413.03 79.9923 352.243 36.3909 276.951 0.521905" stroke="#050505" stroke-width="1.17038"/>
</svg>
