<svg width="377" height="471" viewBox="0 0 377 471" fill="none" xmlns="http://www.w3.org/2000/svg">
<g opacity="0.9" clip-path="url(#clip0_37_1571)">
<g opacity="0.7" filter="url(#filter0_f_37_1571)">
<ellipse cx="12.4659" cy="12.4794" rx="12.4659" ry="12.4794" transform="matrix(0.965926 0.258819 -0.258261 0.966075 103.865 318.652)" fill="url(#paint0_radial_37_1571)"/>
</g>
<g opacity="0.7" filter="url(#filter1_f_37_1571)">
<ellipse cx="24.9747" cy="25.0017" rx="24.9747" ry="25.0017" transform="matrix(0.965926 0.258819 -0.258261 0.966075 240.98 136.447)" fill="url(#paint1_radial_37_1571)"/>
</g>
<path d="M325.682 84.7316C352.379 119.262 366.136 151.547 321.572 135.024M321.572 135.024C313.778 132.134 304.2 127.751 292.595 121.626C228.049 87.5588 224.455 103.814 240.396 131.629M321.572 135.024C317.162 127.069 311.008 118.096 303.949 108.966M321.572 135.024C333.843 157.157 332.619 171.413 299.839 159.259M240.396 131.629C245.22 140.048 251.834 149.526 259.089 158.988M240.396 131.629C248.541 134.735 258.602 139.39 270.862 145.861C282.467 151.986 292.045 156.369 299.839 159.259M240.396 131.629C205.655 118.385 205.75 133.331 218.662 155.864M299.839 159.259C295.428 151.303 289.274 142.33 282.216 133.2M299.839 159.259C312.109 181.391 310.886 195.647 278.105 183.493M218.662 155.864C223.487 164.283 230.101 173.76 237.356 183.223M218.662 155.864C226.808 158.969 236.869 163.624 249.129 170.095C260.733 176.22 270.311 180.603 278.105 183.493M218.662 155.864C183.922 142.62 184.016 157.566 196.929 180.098M278.105 183.493C273.695 175.538 267.541 166.565 260.482 157.435M278.105 183.493C290.376 205.625 289.153 219.882 256.372 207.727M196.929 180.098C201.753 188.517 208.367 197.995 215.622 207.457M196.929 180.098C205.074 183.204 215.135 187.859 227.395 194.33C239 200.455 248.578 204.837 256.372 207.727M196.929 180.098C162.188 166.854 162.283 181.8 175.195 204.333M256.372 207.727C251.962 199.772 245.808 190.799 238.749 181.669M256.372 207.727C268.643 229.86 267.419 244.116 234.639 231.962M175.195 204.333C180.02 212.751 186.634 222.229 193.889 231.691M175.195 204.333C183.341 207.438 193.402 212.093 205.662 218.564C217.267 224.689 226.845 229.072 234.639 231.962M175.195 204.333C140.455 191.088 140.549 206.035 153.462 228.567M234.639 231.962C230.228 224.006 224.074 215.033 217.016 205.904M234.639 231.962C246.909 254.094 245.686 268.35 212.905 256.196M153.462 228.567C158.287 236.986 164.901 246.464 172.156 255.926M153.462 228.567C161.608 231.672 171.669 236.328 183.928 242.798C195.533 248.923 205.111 253.306 212.905 256.196M153.462 228.567C118.722 215.323 118.816 230.269 131.729 252.801M212.905 256.196C208.495 248.241 202.341 239.268 195.282 230.138M212.905 256.196C225.176 278.329 223.953 292.585 191.172 280.431M131.729 252.801C136.553 261.22 143.167 270.698 150.422 280.16M131.729 252.801C139.874 255.907 149.935 260.562 162.195 267.033C173.8 273.158 183.378 277.541 191.172 280.431M131.729 252.801C96.9882 239.557 97.0827 254.503 109.995 277.036M191.172 280.431C186.761 272.475 180.607 263.502 173.549 254.372M191.172 280.431C203.443 302.563 202.219 316.819 169.439 304.665M109.995 277.036C114.82 285.455 121.434 294.932 128.689 304.395M109.995 277.036C118.141 280.141 128.202 284.796 140.462 291.267C152.067 297.392 161.645 301.775 169.439 304.665M109.995 277.036C75.2548 263.792 75.3493 278.738 88.262 301.27M169.439 304.665C165.028 296.71 158.874 287.737 151.816 278.607M169.439 304.665C181.709 326.797 180.486 341.054 147.705 328.899M88.262 301.27C93.0865 309.689 99.7006 319.167 106.956 328.629M88.262 301.27C96.4077 304.376 106.469 309.031 118.728 315.502C130.333 321.627 139.911 326.009 147.705 328.899M88.262 301.27C53.5214 288.026 53.616 302.972 66.5286 325.505M147.705 328.899C143.295 320.944 137.141 311.971 130.082 302.841M147.705 328.899C162.893 356.294 157.408 371.622 96.995 339.736C84.7352 333.265 74.6743 328.61 66.5286 325.505M66.5286 325.505C71.3532 333.923 77.9672 343.401 85.2223 352.863M66.5286 325.505C18.8079 307.312 36.8163 342.311 63.4889 377.098" stroke="url(#paint2_linear_37_1571)"/>
<path d="M315.929 95.6066C342.625 130.137 356.382 162.422 311.818 145.899M311.818 145.899C304.024 143.009 294.446 138.626 282.841 132.501C218.295 98.4338 214.701 114.689 230.642 142.504M311.818 145.899C307.408 137.944 301.254 128.971 294.195 119.841M311.818 145.899C324.089 168.032 322.866 182.288 290.085 170.134M230.642 142.504C235.466 150.923 242.08 160.401 249.335 169.863M230.642 142.504C238.787 145.61 248.848 150.265 261.108 156.736C272.713 162.861 282.291 167.244 290.085 170.134M230.642 142.504C195.901 129.26 195.996 144.206 208.908 166.739M290.085 170.134C285.674 162.178 279.52 153.205 272.462 144.075M290.085 170.134C302.356 192.266 301.132 206.522 268.352 194.368M208.908 166.739C213.733 175.158 220.347 184.635 227.602 194.098M208.908 166.739C217.054 169.844 227.115 174.499 239.375 180.97C250.979 187.095 260.558 191.478 268.352 194.368M208.908 166.739C174.168 153.495 174.262 168.441 187.175 190.973M268.352 194.368C263.941 186.413 257.787 177.44 250.728 168.31M268.352 194.368C280.622 216.5 279.399 230.757 246.618 218.602M187.175 190.973C191.999 199.392 198.613 208.87 205.869 218.332M187.175 190.973C195.321 194.079 205.381 198.734 217.641 205.205C229.246 211.33 238.824 215.712 246.618 218.602M187.175 190.973C152.434 177.729 152.529 192.675 165.442 215.208M246.618 218.602C242.208 210.647 236.054 201.674 228.995 192.544M246.618 218.602C258.889 240.735 257.665 254.991 224.885 242.837M165.442 215.208C170.266 223.626 176.88 233.104 184.135 242.566M165.442 215.208C173.587 218.313 183.648 222.968 195.908 229.439C207.513 235.564 217.091 239.947 224.885 242.837M165.442 215.208C130.701 201.963 130.796 216.91 143.708 239.442M224.885 242.837C220.474 234.881 214.32 225.908 207.262 216.779M224.885 242.837C237.155 264.969 235.932 279.225 203.151 267.071M143.708 239.442C148.533 247.861 155.147 257.339 162.402 266.801M143.708 239.442C151.854 242.547 161.915 247.203 174.175 253.673C185.779 259.798 195.357 264.181 203.151 267.071M143.708 239.442C108.968 226.198 109.062 241.144 121.975 263.676M203.151 267.071C198.741 259.116 192.587 250.143 185.528 241.013M203.151 267.071C215.422 289.204 214.199 303.46 181.418 291.306M121.975 263.676C126.799 272.095 133.413 281.573 140.668 291.035M121.975 263.676C130.12 266.782 140.181 271.437 152.441 277.908C164.046 284.033 173.624 288.416 181.418 291.306M121.975 263.676C87.2343 250.432 87.3288 265.378 100.241 287.911M181.418 291.306C177.008 283.35 170.854 274.377 163.795 265.247M181.418 291.306C193.689 313.438 192.465 327.694 159.685 315.54M100.241 287.911C105.066 296.33 111.68 305.807 118.935 315.27M100.241 287.911C108.387 291.016 118.448 295.671 130.708 302.142C142.313 308.267 151.891 312.65 159.685 315.54M100.241 287.911C65.5009 274.667 65.5954 289.613 78.5081 312.145M159.685 315.54C155.274 307.585 149.12 298.612 142.062 289.482M159.685 315.54C171.955 337.672 170.732 351.929 137.951 339.774M78.5081 312.145C83.3326 320.564 89.9467 330.042 97.2017 339.504M78.5081 312.145C86.6538 315.251 96.7146 319.906 108.974 326.377C120.579 332.502 130.157 336.884 137.951 339.774M78.5081 312.145C43.7675 298.901 43.8621 313.847 56.7747 336.38M137.951 339.774C133.541 331.819 127.387 322.846 120.328 313.716M137.951 339.774C153.14 367.169 147.654 382.497 87.2411 350.611C74.9813 344.14 64.9204 339.485 56.7747 336.38M56.7747 336.38C61.5993 344.798 68.2133 354.276 75.4684 363.738M56.7747 336.38C9.05398 318.187 27.0624 353.186 53.735 387.973" stroke="url(#paint3_linear_37_1571)"/>
</g>
<defs>
<filter id="filter0_f_37_1571" x="88.2148" y="309.451" width="48.9375" height="48.9668" filterUnits="userSpaceOnUse" color-interpolation-filters="sRGB">
<feFlood flood-opacity="0" result="BackgroundImageFix"/>
<feBlend mode="normal" in="SourceGraphic" in2="BackgroundImageFix" result="shape"/>
<feGaussianBlur stdDeviation="6" result="effect1_foregroundBlur_37_1571"/>
</filter>
<filter id="filter1_f_37_1571" x="210.668" y="119.055" width="95.959" height="96.0195" filterUnits="userSpaceOnUse" color-interpolation-filters="sRGB">
<feFlood flood-opacity="0" result="BackgroundImageFix"/>
<feBlend mode="normal" in="SourceGraphic" in2="BackgroundImageFix" result="shape"/>
<feGaussianBlur stdDeviation="11.5" result="effect1_foregroundBlur_37_1571"/>
</filter>
<radialGradient id="paint0_radial_37_1571" cx="0" cy="0" r="1" gradientUnits="userSpaceOnUse" gradientTransform="translate(12.4659 12.4794) rotate(90) scale(14.8793 14.8632)">
<stop offset="0.419792" stop-color="#5CE4CF"/>
<stop offset="1" stop-color="#99A9FF"/>
</radialGradient>
<radialGradient id="paint1_radial_37_1571" cx="0" cy="0" r="1" gradientUnits="userSpaceOnUse" gradientTransform="translate(24.9747 25.0017) rotate(90) scale(29.8097 29.7775)">
<stop offset="0.419792" stop-color="#5CE4CF"/>
<stop offset="1" stop-color="#99A9FF"/>
</radialGradient>
<linearGradient id="paint2_linear_37_1571" x1="119.663" y1="248.769" x2="301.601" y2="173.921" gradientUnits="userSpaceOnUse">
<stop stop-color="#99A9FF"/>
<stop offset="1" stop-color="#5CE5CF"/>
</linearGradient>
<linearGradient id="paint3_linear_37_1571" x1="223.354" y1="276.421" x2="144.14" y2="205.382" gradientUnits="userSpaceOnUse">
<stop offset="0.14407" stop-color="#99A9FF"/>
<stop offset="0.726512" stop-color="#66FFE5" stop-opacity="0.35"/>
</linearGradient>
<clipPath id="clip0_37_1571">
<rect width="279.221" height="411.526" fill="white" transform="matrix(0.965926 0.258819 -0.258261 0.966075 106.955 0.5)"/>
</clipPath>
</defs>
</svg>
