<svg width="1864" height="772" viewBox="0 0 1864 772" fill="none" xmlns="http://www.w3.org/2000/svg">
<path opacity="0.8" d="M3.60912 633.019C-8.13068 438.431 26.5123 282.679 161.567 450.095M161.567 450.095C185.188 479.376 211.881 518.542 241.934 569.115C409.09 850.405 469.367 796.577 482.568 652.833M161.567 450.095C157.187 490.859 157.049 539.594 160.153 591.044M161.567 450.095C173.752 336.686 218.765 284.969 318.111 408.12M482.568 652.833C486.563 609.327 486.246 557.584 483.275 504.403M482.568 652.833C458.12 621.905 430.227 580.568 398.478 527.14C368.425 476.567 341.732 437.401 318.111 408.12M482.568 652.833C586.833 784.738 628.418 727.299 639.112 610.858M318.111 408.12C313.731 448.884 313.593 497.619 316.697 549.069M318.111 408.12C330.296 294.71 375.309 242.994 474.655 366.144M639.112 610.858C643.107 567.352 642.79 515.609 639.819 462.427M639.112 610.858C614.664 579.93 586.771 538.592 555.021 485.165C524.968 434.592 498.276 395.425 474.655 366.144M639.112 610.858C743.377 742.762 784.962 685.324 795.655 568.883M474.655 366.144C470.275 406.909 470.136 455.644 473.241 507.093M474.655 366.144C486.84 252.735 531.853 201.019 631.199 324.169M795.655 568.883C799.651 525.376 799.334 473.633 796.363 420.452M795.655 568.883C771.208 537.955 743.315 496.617 711.565 443.19C681.512 392.616 654.82 353.45 631.199 324.169M795.655 568.883C899.921 700.787 941.505 643.348 952.199 526.907M631.199 324.169C626.819 364.933 626.68 413.668 629.784 465.118M631.199 324.169C643.384 210.76 688.397 159.043 787.742 282.194M952.199 526.907C956.195 483.401 955.878 431.658 952.907 378.477M952.199 526.907C927.752 495.979 899.858 454.642 868.109 401.214C838.056 350.641 811.363 311.475 787.742 282.194M952.199 526.907C1056.46 658.812 1098.05 601.373 1108.74 484.932M787.742 282.194C783.363 322.958 783.224 371.693 786.328 423.143M787.742 282.194C799.928 168.784 844.94 117.068 944.286 240.218M1108.74 484.932C1112.74 441.426 1112.42 389.683 1109.45 336.501M1108.74 484.932C1084.3 454.004 1056.4 412.666 1024.65 359.239C994.6 308.666 967.907 269.499 944.286 240.218M1108.74 484.932C1213.01 616.836 1254.59 559.398 1265.29 442.957M944.286 240.218C939.906 280.983 939.768 329.718 942.872 381.167M944.286 240.218C956.471 126.809 1001.48 75.0927 1100.83 198.243M1265.29 442.957C1269.28 399.45 1268.97 347.707 1265.99 294.526M1265.29 442.957C1240.84 412.029 1212.95 370.691 1181.2 317.264C1151.14 266.69 1124.45 227.524 1100.83 198.243M1265.29 442.957C1369.55 574.861 1411.14 517.422 1421.83 400.981M1100.83 198.243C1096.45 239.007 1096.31 287.742 1099.42 339.192M1100.83 198.243C1113.02 84.8336 1158.03 33.1173 1257.37 156.268M1421.83 400.981C1425.83 357.475 1425.51 305.732 1422.54 252.551M1421.83 400.981C1397.38 370.053 1369.49 328.716 1337.74 275.288C1307.69 224.715 1280.99 185.549 1257.37 156.268M1421.83 400.981C1526.1 532.886 1567.68 475.447 1578.37 359.006M1257.37 156.268C1252.99 197.032 1252.86 245.767 1255.96 297.217M1257.37 156.268C1269.56 42.8582 1314.57 -8.85798 1413.92 114.292M1578.37 359.006C1582.37 315.5 1582.05 263.757 1579.08 210.575M1578.37 359.006C1553.93 328.078 1526.03 286.74 1494.28 233.313C1464.23 182.74 1437.54 143.573 1413.92 114.292M1578.37 359.006C1682.64 490.91 1724.22 433.472 1734.92 317.031M1413.92 114.292C1409.54 155.057 1409.4 203.792 1412.5 255.241M1413.92 114.292C1429 -26.0819 1494.38 -71.9382 1650.83 191.338C1682.58 244.765 1710.47 286.103 1734.92 317.031M1734.92 317.031C1738.91 273.524 1738.6 221.781 1735.63 168.6M1734.92 317.031C1878.14 498.219 1903.09 322.142 1892.17 126.625" stroke="black"/>
</svg>
