<svg width="363" height="392" viewBox="0 0 363 392" fill="none" xmlns="http://www.w3.org/2000/svg">
<g clip-path="url(#clip0_37_2132)">
<path opacity="0.2" d="M59.2754 257.163V122.308C59.2754 116.056 62.218 110.168 67.2184 106.415L84.7135 93.2849C88.154 90.7027 92.3397 89.3066 96.6415 89.3066H278.509C283.957 89.3066 289.167 91.5436 292.918 95.4943L357.102 163.082C360.609 166.775 362.564 171.673 362.564 176.765V356.944C362.564 362.32 360.386 367.468 356.526 371.21L341.27 386.002C337.562 389.597 332.601 391.608 327.437 391.608H149.428C144.154 391.608 139.096 389.511 135.368 385.779L65.0871 315.414C61.3657 311.688 59.2754 306.637 59.2754 301.371V256.368" stroke="#B8B8B8" stroke-width="1.24195"/>
<path opacity="0.4" d="M39.5176 227.526V92.6716C39.5176 86.4194 42.4601 80.5318 47.4606 76.7787L64.9556 63.6482C68.3962 61.0659 72.5819 59.6699 76.8837 59.6699H258.751C264.199 59.6699 269.409 61.9069 273.16 65.8575L337.344 133.445C340.851 137.138 342.806 142.036 342.806 147.129V327.307C342.806 332.684 340.628 337.831 336.768 341.573L321.512 356.366C317.804 359.96 312.843 361.971 307.679 361.971H129.67C124.396 361.971 119.338 359.874 115.611 356.142L45.3293 285.777C41.6079 282.051 39.5176 277.001 39.5176 271.735V226.731" stroke="#B8B8B8" stroke-width="1.24195"/>
<path opacity="0.6" d="M19.7578 197.888V63.0329C19.7578 56.7807 22.7004 50.8931 27.7009 47.1401L45.1959 34.0095C48.6365 31.4273 52.8221 30.0312 57.124 30.0312H238.992C244.44 30.0312 249.649 32.2682 253.401 36.2189L317.585 103.806C321.091 107.499 323.047 112.397 323.047 117.49V297.669C323.047 303.045 320.868 308.192 317.008 311.935L301.752 326.727C298.045 330.322 293.084 332.332 287.919 332.332H109.91C104.636 332.332 99.5781 330.235 95.8509 326.504L25.5696 256.139C21.8481 252.413 19.7578 247.362 19.7578 242.096V197.092" stroke="#B8B8B8" stroke-width="1.24195"/>
<path d="M0 168.251V33.3962C0 27.144 2.94256 21.2564 7.94305 17.5034L25.4381 4.37281C28.8786 1.79055 33.0643 0.394531 37.3661 0.394531H219.234C224.682 0.394531 229.891 2.6315 233.643 6.58215L297.827 74.1698C301.334 77.8625 303.289 82.7607 303.289 87.8533V268.032C303.289 273.408 301.11 278.555 297.25 282.298L281.994 297.09C278.287 300.685 273.326 302.695 268.162 302.695H90.1525C84.8782 302.695 79.8203 300.599 76.0931 296.867L5.81175 226.502C2.09031 222.776 0 217.725 0 212.459V167.456" stroke="#FFCC99" stroke-width="1.24195"/>
</g>
<defs>
<clipPath id="clip0_37_2132">
<rect width="362.563" height="391.213" fill="white" transform="translate(0 0.394531)"/>
</clipPath>
</defs>
</svg>
