<svg width="133" height="513" viewBox="0 0 133 513" fill="none" xmlns="http://www.w3.org/2000/svg">
<path d="M-69.0056 1.20283C-122.622 26.4952 -159.193 56.9605 -95.0595 64.1994M-95.0595 64.1994C-83.8426 65.4654 -69.5453 66.021 -51.7198 65.7142C47.4258 64.0076 41.7466 85.7468 5.29109 109.507M-95.0595 64.1994C-84.8127 57.3136 -71.8279 50.2646 -57.6514 43.5772M-95.0595 64.1994C-123.567 83.3561 -130.882 101.249 -83.7053 106.574M5.29109 109.507C-5.74274 116.698 -19.5959 124.075 -34.2152 131.042M5.29109 109.507C-6.4844 108.286 -21.5342 107.764 -40.3657 108.089C-58.1911 108.395 -72.4885 107.84 -83.7053 106.574M5.29109 109.507C55.5123 114.713 46.1765 132.634 16.6453 151.881M-83.7053 106.574C-73.4586 99.688 -60.4738 92.6389 -46.2972 85.9515M-83.7053 106.574C-112.213 125.73 -119.527 143.623 -72.3512 148.948M16.6453 151.881C5.61144 159.072 -8.24172 166.449 -22.8611 173.416M16.6453 151.881C4.86977 150.66 -10.18 150.139 -29.0115 150.463C-46.8369 150.77 -61.1343 150.214 -72.3512 148.948M16.6453 151.881C66.8664 157.087 57.5306 175.008 27.9994 194.255M-72.3512 148.948C-62.1044 142.062 -49.1196 135.013 -34.9431 128.326M-72.3512 148.948C-100.859 168.105 -108.173 185.997 -60.997 191.322M27.9994 194.255C16.9656 201.447 3.11247 208.823 -11.5069 215.791M27.9994 194.255C16.2239 193.035 1.17417 192.513 -17.6573 192.837C-35.4827 193.144 -49.7801 192.588 -60.997 191.322M27.9994 194.255C78.2206 199.462 68.8848 217.383 39.3536 236.63M-60.997 191.322C-50.7502 184.437 -37.7654 177.388 -23.5889 170.7M-60.997 191.322C-89.5043 210.479 -96.8191 228.372 -49.6428 233.697M39.3536 236.63C28.3198 243.821 14.4666 251.198 -0.152731 258.165M39.3536 236.63C27.5781 235.409 12.5283 234.887 -6.30314 235.212C-24.1286 235.518 -38.4259 234.963 -49.6428 233.697M39.3536 236.63C89.5748 241.836 80.239 259.757 50.7078 279.004M-49.6428 233.697C-39.396 226.811 -26.4112 219.762 -12.2347 213.075M-49.6428 233.697C-78.1502 252.853 -85.465 270.746 -38.2886 276.071M50.7078 279.004C39.674 286.196 25.8208 293.572 11.2014 300.54M50.7078 279.004C38.9323 277.783 23.8825 277.262 5.05103 277.586C-12.7744 277.893 -27.0718 277.337 -38.2886 276.071M50.7078 279.004C100.929 284.21 91.5932 302.131 62.062 321.378M-38.2886 276.071C-28.0419 269.185 -15.0571 262.136 -0.880562 255.449M-38.2886 276.071C-66.796 295.228 -74.1108 313.12 -26.9345 318.445M62.062 321.378C51.0281 328.57 37.175 335.946 22.5556 342.914M62.062 321.378C50.2865 320.158 35.2367 319.636 16.4052 319.96C-1.42023 320.267 -15.7176 319.711 -26.9345 318.445M62.062 321.378C112.283 326.585 102.947 344.506 73.4161 363.753M-26.9345 318.445C-16.6877 311.56 -3.70288 304.511 10.4736 297.823M-26.9345 318.445C-55.4418 337.602 -62.7566 355.495 -15.5803 360.82M73.4161 363.753C62.3823 370.944 48.5292 378.321 33.9098 385.288M73.4161 363.753C61.6406 362.532 46.5909 362.01 27.7594 362.335C9.93395 362.641 -4.36341 362.086 -15.5803 360.82M73.4161 363.753C123.637 368.959 114.301 386.88 84.7703 406.127M-15.5803 360.82C-5.33352 353.934 7.65129 346.885 21.8278 340.198M-15.5803 360.82C-44.0877 379.976 -51.4025 397.869 -4.22611 403.194M84.7703 406.127C73.7365 413.319 59.8833 420.695 45.264 427.663M84.7703 406.127C72.9948 404.906 57.945 404.385 39.1135 404.709C21.2881 405.016 6.99076 404.46 -4.22611 403.194M84.7703 406.127C134.991 411.333 125.656 429.254 96.1245 448.502M-4.22611 403.194C6.02065 396.308 19.0055 389.259 33.182 382.572M-4.22611 403.194C-39.5115 426.906 -42.3286 448.681 50.4677 447.083C69.2992 446.759 84.349 447.281 96.1245 448.502M96.1245 448.502C85.0906 455.693 71.2375 463.069 56.6181 470.037M96.1245 448.502C165.11 455.653 121.719 486.796 67.9723 512.411" stroke="#050505" stroke-width="1.17038"/>
</svg>
