<svg width="554" height="369" viewBox="0 0 554 369" fill="none" xmlns="http://www.w3.org/2000/svg">
<g clip-path="url(#clip0_37_1628)">
<path d="M432.674 20.1485C429.739 18.7646 426.705 17.4466 423.688 16.2275L424.924 13.1797C427.991 14.4153 431.074 15.7662 434.075 17.1666L432.674 20.132V20.1485Z" fill="#231F20"/>
<path d="M534.538 155.537C528.668 118.073 511.454 83.9873 484.776 56.9523C473.58 45.6013 460.917 35.7659 447.133 27.7262L448.782 24.8926C462.813 33.0805 475.707 43.0806 487.117 54.6459C514.274 82.175 531.801 116.887 537.786 155.026L534.538 155.537Z" fill="#231F20"/>
<path d="M213.394 292.706C190.558 261.948 178.356 225.49 178.076 187.252H181.357C181.621 224.765 193.608 260.564 216.016 290.746L213.378 292.706H213.394Z" fill="#231F20"/>
<path d="M212.75 85.9482L210.062 84.07C211.959 81.3517 213.954 78.6499 215.998 76.0469L218.587 78.0733C216.575 80.6268 214.63 83.2793 212.767 85.9482H212.75Z" fill="#231F20"/>
<path d="M243.468 52.2572L241.357 49.753C260.204 33.8714 281.738 22.2732 305.349 15.2715L306.289 18.4181C283.106 25.2881 261.968 36.6721 243.468 52.2572Z" fill="#231F20"/>
<path d="M374.172 12.2575C368.483 11.6479 362.696 11.3184 356.975 11.269C355.095 11.269 353.215 11.269 351.352 11.3184L351.27 8.03998C353.182 7.99055 355.095 7.97408 357.008 7.99055C362.844 8.03998 368.747 8.36947 374.535 8.99551L374.188 12.2575H374.172Z" fill="#231F20"/>
<path d="M430.463 28.2205C427.528 26.8201 424.511 25.4692 421.51 24.2501L422.763 21.2188C425.813 22.4708 428.897 23.8382 431.881 25.2715L430.463 28.237V28.2205Z" fill="#231F20"/>
<path d="M527.597 166.13C523.673 127.316 506.409 90.6104 478.956 62.7682C465.666 49.2919 450.332 38.1385 433.398 29.6376L434.866 26.7051C452.129 35.3543 467.744 46.7218 481.297 60.4617C509.262 88.8311 526.871 126.245 530.862 165.801L527.597 166.13Z" fill="#231F20"/>
<path d="M217.037 283.66C199.147 258.009 188.644 227.976 186.648 196.806L189.93 196.592C191.875 227.152 202.181 256.609 219.724 281.782L217.037 283.66Z" fill="#231F20"/>
<path d="M519.864 172.572C517.276 133.494 500.672 96.5579 473.12 68.6003C456.697 51.928 437.274 39.1601 415.41 30.6756L416.597 27.6113C438.89 36.2605 458.692 49.2755 475.461 66.2939C503.557 94.828 520.491 132.489 523.146 172.358L519.864 172.572Z" fill="#231F20"/>
<path d="M522.767 198.948L519.502 198.635C519.799 195.406 520.013 192.111 520.129 188.865L523.41 188.981C523.294 192.292 523.08 195.636 522.767 198.931V198.948Z" fill="#231F20"/>
<path d="M223.22 278.109C206.765 254.188 197.004 226.28 194.959 197.383L198.24 197.152C200.235 225.472 209.815 252.82 225.924 276.247L223.22 278.109Z" fill="#231F20"/>
<path d="M287.74 43.1478L286.322 40.1823C290.312 38.2712 294.435 36.5085 298.573 34.9434L299.744 38.0077C295.688 39.5398 291.665 41.2696 287.74 43.1478Z" fill="#231F20"/>
<path d="M302.81 36.8877L301.705 33.7905C302.744 33.4115 303.799 33.0491 304.854 32.7031L305.893 35.8168C304.854 36.1628 303.832 36.5088 302.81 36.8877Z" fill="#231F20"/>
<path d="M515.066 191.272L511.785 191.107C511.901 188.949 511.95 186.774 511.967 184.665C512.313 143.199 496.451 104.055 467.283 74.4332C439.78 46.4922 403.011 29.9845 363.752 27.9581L363.917 24.6797C404 26.739 441.528 43.5926 469.624 72.1268C499.402 102.374 515.594 142.358 515.248 184.682C515.231 186.84 515.165 189.064 515.05 191.272H515.066Z" fill="#231F20"/>
<path d="M229.948 273.364C218.867 257.219 211.035 239.377 206.666 220.299L209.865 219.574C214.135 238.24 221.802 255.703 232.652 271.502L229.948 273.364Z" fill="#231F20"/>
<path d="M206.683 220.3C206.073 217.615 205.512 214.863 205.051 212.128L208.283 211.568C208.744 214.237 209.288 216.923 209.882 219.559L206.683 220.283V220.3Z" fill="#231F20"/>
<path d="M503.556 176.082C501.776 140.052 486.821 106.015 461.461 80.2323C433.728 52.0277 396.612 36.3108 356.958 35.9649H355.49V32.6699H356.991C397.519 33.0324 435.459 49.0952 463.803 77.9259C489.723 104.285 505.008 139.08 506.838 175.901L503.556 176.066V176.082Z" fill="#231F20"/>
<path d="M233.559 263.842C224.013 248.702 217.401 232.129 213.889 214.6L217.104 213.957C220.534 231.091 226.997 247.285 236.329 262.096L233.543 263.842H233.559Z" fill="#231F20"/>
<path d="M369.078 44.8431C365.072 44.4642 360.999 44.25 356.959 44.2006C353.414 44.1677 349.82 44.2665 346.275 44.5136L346.061 41.2352C349.688 40.9881 353.365 40.8892 356.992 40.9222C361.114 40.9551 365.286 41.1858 369.392 41.5647L369.078 44.8267V44.8431Z" fill="#231F20"/>
<path d="M492.955 157.037C487.744 130.167 474.834 105.636 455.625 86.081C433.431 63.4777 403.835 48.9635 372.309 45.2073L372.704 41.9453C404.972 45.8004 435.262 60.6441 457.983 83.7745C477.653 103.791 490.861 128.915 496.186 156.411L492.955 157.037Z" fill="#231F20"/>
<path d="M234.663 249.196C230.08 240.3 226.452 230.909 223.896 221.239L227.079 220.398C229.585 229.822 233.114 238.998 237.598 247.681L234.68 249.18L234.663 249.196Z" fill="#231F20"/>
<path d="M317.138 58.1729L316.182 55.0262C319.347 54.0707 322.612 53.1975 325.86 52.4727L326.586 55.6687C323.42 56.3772 320.238 57.2174 317.138 58.1564V58.1729Z" fill="#231F20"/>
<path d="M371.913 53.4438C366.967 52.8342 361.938 52.5048 356.958 52.4553C352.193 52.4059 347.378 52.6201 342.646 53.0814L342.316 49.8194C347.164 49.3416 352.094 49.1274 356.975 49.1769C362.086 49.2263 367.23 49.5723 372.292 50.1983L371.897 53.4603L371.913 53.4438Z" fill="#231F20"/>
<path d="M481.117 143.873C474.934 124.449 464.101 106.475 449.805 91.8952C429.871 71.5819 403.357 58.0891 375.129 53.8881L375.607 50.6426C404.528 54.9425 431.701 68.7812 452.13 89.6052C466.788 104.548 477.885 122.966 484.233 142.884L481.1 143.873H481.117Z" fill="#231F20"/>
<path d="M239.825 241.008C237.467 235.984 235.423 230.761 233.725 225.489L236.857 224.484C238.506 229.624 240.501 234.715 242.81 239.608L239.842 241.008H239.825Z" fill="#231F20"/>
<path d="M309.85 69.4243L308.646 66.3765C314.846 63.9217 321.277 61.9448 327.773 60.4785L328.499 63.6746C322.167 65.0914 315.901 67.019 309.85 69.4078V69.4243Z" fill="#231F20"/>
<path d="M367.314 61.2354C363.884 60.9059 360.405 60.7247 356.959 60.6918C353.909 60.6588 350.842 60.7412 347.808 60.9389L347.594 57.6604C350.71 57.4627 353.859 57.3804 356.976 57.4133C360.504 57.4463 364.082 57.644 367.611 57.9735L367.297 61.2354H367.314Z" fill="#231F20"/>
<path d="M435.312 89.6886C417.785 74.9438 396.498 65.372 373.777 62.0111L374.255 58.7656C397.587 62.2088 419.417 72.0278 437.423 87.168L435.312 89.6721V89.6886Z" fill="#231F20"/>
<path d="M438.973 92.9014C438.577 92.539 438.165 92.1765 437.77 91.8141L439.946 89.3594C440.358 89.7218 440.77 90.1007 441.183 90.4796L438.973 92.9014Z" fill="#231F20"/>
<path d="M473.005 145.587C467.184 127.712 457.143 111.172 443.969 97.7285C442.353 96.081 440.671 94.4665 438.973 92.9179L441.182 90.4961C442.93 92.0941 444.661 93.7581 446.31 95.4385C459.831 109.244 470.136 126.23 476.121 144.582L473.005 145.604V145.587Z" fill="#231F20"/>
<path d="M430.91 284.237L428.98 281.585C433.35 278.422 437.538 274.929 441.462 271.189L443.721 273.562C439.698 277.4 435.378 280.992 430.893 284.254L430.91 284.237Z" fill="#231F20"/>
<path d="M369.062 307.352L368.781 304.09C378.493 303.233 388.106 301.19 397.356 298.027L398.427 301.125C388.93 304.387 379.054 306.479 369.078 307.352H369.062Z" fill="#231F20"/>
<path d="M320.09 74.4979L319.084 71.3677C324.377 69.6708 329.834 68.3199 335.309 67.3809L335.869 70.6099C330.543 71.5325 325.251 72.834 320.09 74.4979Z" fill="#231F20"/>
<path d="M441.742 107.398C440.571 106.08 439.351 104.779 438.147 103.543C416.646 81.5659 387.808 69.2758 356.958 68.9298C351.006 68.8639 344.971 69.2593 339.068 70.116L338.59 66.8705C344.658 65.9973 350.841 65.5855 356.991 65.6514C388.715 66.0138 418.377 78.6499 440.488 101.253C441.742 102.522 442.978 103.856 444.198 105.224L441.742 107.415V107.398Z" fill="#231F20"/>
<path d="M464.578 146.378C460.341 134.038 454.058 122.588 445.93 112.357L448.502 110.314C456.862 120.842 463.325 132.605 467.694 145.307L464.595 146.378H464.578Z" fill="#231F20"/>
<path d="M467.348 155.719C466.821 153.626 466.227 151.518 465.584 149.458L468.717 148.486C469.376 150.595 469.986 152.753 470.531 154.911L467.348 155.702V155.719Z" fill="#231F20"/>
<path d="M429.87 274.698L427.842 272.128C430.925 269.69 433.91 267.07 436.729 264.319C440.868 260.283 444.726 255.884 448.205 251.238L450.843 253.199C447.265 257.96 443.291 262.49 439.037 266.659C436.152 269.476 433.069 272.178 429.886 274.698H429.87Z" fill="#231F20"/>
<path d="M365.253 299.361L365.055 296.082C379.202 295.226 392.887 291.75 405.765 285.736L407.15 288.702C393.909 294.896 379.812 298.471 365.253 299.361Z" fill="#231F20"/>
<path d="M405.287 89.2936C390.447 81.5505 373.728 77.3659 356.959 77.1682C344.445 77.0035 332.078 79.0299 320.223 83.1485L319.135 80.0513C331.353 75.8008 344.049 73.7085 356.992 73.8897C374.272 74.1039 391.503 78.4203 406.804 86.394L405.287 89.3101V89.2936Z" fill="#231F20"/>
<path d="M454.62 143.298C449.426 130.612 441.924 119.195 432.311 109.376C425.171 102.078 417.042 95.8506 408.139 90.8588L409.738 87.9922C418.922 93.1323 427.298 99.5574 434.652 107.086C444.545 117.218 452.278 128.981 457.637 142.062L454.603 143.298H454.62Z" fill="#231F20"/>
<path d="M460.918 165.077C459.797 158.701 458.066 152.392 455.807 146.329L458.89 145.176C461.231 151.436 463.012 157.944 464.166 164.517L460.935 165.094L460.918 165.077Z" fill="#231F20"/>
<path d="M434.29 259.74L431.965 257.418C432.723 256.643 433.482 255.869 434.224 255.078L436.631 257.319C435.873 258.126 435.098 258.933 434.306 259.724L434.29 259.74Z" fill="#231F20"/>
<path d="M362.399 291.256L362.268 287.977C379.58 287.302 396.629 282.244 411.535 273.348L413.217 276.165C397.833 285.341 380.256 290.564 362.383 291.256H362.399Z" fill="#231F20"/>
<path d="M310.609 96.1624L309.125 93.2299C310.114 92.7192 311.12 92.2414 312.142 91.7637L313.527 94.7456C312.555 95.2069 311.582 95.6682 310.609 96.1624Z" fill="#231F20"/>
<path d="M392.36 92.4222C381.048 87.9247 369.144 85.5523 356.959 85.404C346.324 85.2558 335.771 86.8209 325.614 90.0334L324.625 86.9032C335.112 83.5753 345.994 81.9773 357.008 82.1091C369.605 82.2738 381.906 84.7121 393.596 89.3744L392.376 92.4222H392.36Z" fill="#231F20"/>
<path d="M440.737 133.84C436.763 127.085 431.965 120.808 426.474 115.19C419.862 108.419 412.327 102.637 404.066 98.0072L405.666 95.1406C414.207 99.9183 422.006 105.899 428.832 112.9C434.488 118.716 439.451 125.19 443.573 132.176L440.737 133.84Z" fill="#231F20"/>
<path d="M453.4 170.331C451.949 159.59 448.734 149.227 443.854 139.524L446.788 138.041C451.834 148.074 455.165 158.783 456.665 169.887L453.417 170.331H453.4Z" fill="#231F20"/>
<path d="M360.519 283.084L360.453 279.806C384.526 279.262 407.363 269.724 424.758 252.969L427.033 255.325C409.045 272.656 385.433 282.524 360.536 283.084H360.519Z" fill="#231F20"/>
<path d="M445.601 174.664C443.622 154.582 434.768 135.52 420.654 121.006C403.819 103.691 381.197 93.9713 356.959 93.6253C339.102 93.3452 321.69 98.3206 306.587 107.909L304.822 105.141C320.47 95.1904 338.541 90.0668 357.008 90.3468C382.12 90.7093 405.567 100.775 423.011 118.716C437.653 133.774 446.837 153.527 448.882 174.335L445.617 174.664H445.601Z" fill="#231F20"/>
<path d="M448.172 197.762L444.924 197.251C445.583 193.1 445.946 188.866 446.012 184.648C446.029 183.478 446.012 182.309 445.996 181.139L449.277 181.057C449.31 182.276 449.31 183.478 449.293 184.698C449.227 189.063 448.848 193.462 448.172 197.762Z" fill="#231F20"/>
<path d="M359.63 274.865L359.58 271.586C381.938 271.257 403.126 262.459 419.219 246.841C421.197 244.93 423.11 242.887 424.891 240.795L427.397 242.92C425.534 245.095 423.555 247.22 421.511 249.197C404.808 265.408 382.829 274.519 359.63 274.865Z" fill="#231F20"/>
<path d="M310.198 115.388L308.4 112.637C314.979 108.353 322.119 104.976 329.605 102.604L330.594 105.734C323.388 108.007 316.529 111.253 310.198 115.388Z" fill="#231F20"/>
<path d="M346.373 102.391L346.01 99.129C348.219 98.8819 350.478 98.7171 352.721 98.6348L352.836 101.913C350.692 101.979 348.516 102.144 346.389 102.391H346.373Z" fill="#231F20"/>
<path d="M368.946 102.933C365.005 102.291 360.965 101.928 356.959 101.879H356.068L356.085 98.584H357.008C361.18 98.6499 365.368 99.0288 369.473 99.6878L368.946 102.933Z" fill="#231F20"/>
<path d="M401.757 115.9C392.754 109.838 382.778 105.67 372.127 103.511L372.786 100.299C383.867 102.539 394.238 106.889 403.603 113.182L401.773 115.9H401.757Z" fill="#231F20"/>
<path d="M437.604 178.059C436.351 158.883 428.255 140.695 414.817 126.839C412.36 124.319 409.722 121.914 406.969 119.722L409.013 117.152C411.882 119.426 414.636 121.914 417.175 124.549C431.157 138.965 439.566 157.894 440.886 177.845L437.604 178.059Z" fill="#231F20"/>
<path d="M436.401 210.926L433.301 209.839C436.137 201.717 437.637 193.249 437.769 184.633C437.786 183.512 437.769 182.392 437.769 181.272L441.05 181.189C441.083 182.359 441.083 183.512 441.05 184.682C440.902 193.644 439.336 202.458 436.401 210.91V210.926Z" fill="#231F20"/>
<path d="M358.326 266.627C357.864 266.627 357.402 266.627 356.957 266.627C355.638 266.61 354.319 266.545 353 266.462L353.214 263.184C354.484 263.266 355.737 263.316 357.007 263.332C378.128 263.711 398.162 255.754 413.397 240.992C416.909 237.582 420.141 233.842 422.977 229.855L425.648 231.75C422.697 235.902 419.35 239.806 415.689 243.348C400.14 258.39 379.827 266.61 358.326 266.61V266.627Z" fill="#231F20"/>
<path d="M288.053 152.425L285.102 150.975C286.091 148.965 287.163 146.972 288.317 145.061L291.136 146.741C290.032 148.57 288.993 150.481 288.053 152.408V152.425Z" fill="#231F20"/>
<path d="M292.85 144.021L290.113 142.209C290.723 141.27 291.366 140.348 292.026 139.441L294.697 141.369C294.071 142.242 293.46 143.132 292.867 144.021H292.85Z" fill="#231F20"/>
<path d="M305.449 129.391L303.256 126.953C308.268 122.439 313.841 118.6 319.843 115.52L321.344 118.436C315.606 121.385 310.263 125.075 305.449 129.391Z" fill="#231F20"/>
<path d="M365.153 110.71C364.081 110.579 363.026 110.463 361.938 110.364L362.218 107.086C363.339 107.185 364.46 107.3 365.565 107.448L365.153 110.71Z" fill="#231F20"/>
<path d="M380.817 114.466C378.789 113.741 376.728 113.098 374.65 112.555L375.491 109.375C377.651 109.952 379.811 110.611 381.922 111.368L380.817 114.466Z" fill="#231F20"/>
<path d="M358.327 258.406C357.865 258.406 357.404 258.406 356.942 258.406C355.969 258.389 355.013 258.356 354.057 258.29L354.238 255.012C355.161 255.061 356.068 255.094 356.992 255.111C375.904 255.44 393.876 248.373 407.562 235.193C421.379 221.865 429.178 203.924 429.524 184.649C429.871 165.192 422.566 146.724 408.98 132.671C407.133 130.76 405.154 128.915 403.093 127.218L405.187 124.697C407.331 126.477 409.392 128.388 411.338 130.398C425.534 145.093 433.168 164.385 432.805 184.715C432.443 204.863 424.297 223.628 409.837 237.565C395.855 251.042 377.602 258.422 358.311 258.422L358.327 258.406Z" fill="#231F20"/>
<path d="M288.68 181.552L285.398 181.337C286.553 163.561 294.236 147.004 307.015 134.698C319.711 122.473 336.364 115.505 353.908 115.076L353.99 118.355C337.271 118.766 321.393 125.422 309.29 137.07C297.089 148.8 289.768 164.599 288.68 181.552Z" fill="#231F20"/>
<path d="M411.107 148.586C408.799 144.978 406.128 141.584 403.143 138.487C399.433 134.632 395.245 131.238 390.711 128.388L392.459 125.604C397.224 128.585 401.626 132.16 405.518 136.213C408.65 139.459 411.453 143.034 413.877 146.823L411.107 148.586Z" fill="#231F20"/>
<path d="M415.691 157.054C414.834 155.11 413.844 153.182 412.789 151.32L415.642 149.689C416.763 151.65 417.785 153.676 418.692 155.703L415.691 157.037V157.054Z" fill="#231F20"/>
<path d="M359.513 250.152L359.447 246.874C375.26 246.577 390.281 240.35 401.74 229.361C414.008 217.598 420.933 201.717 421.279 184.649C421.427 177.301 420.323 170.052 417.998 163.067L421.114 162.029C423.554 169.361 424.709 177.005 424.56 184.715C424.197 202.656 416.91 219.361 404.016 231.734C391.946 243.315 376.15 249.856 359.513 250.169V250.152Z" fill="#231F20"/>
<path d="M293.973 193.774C293.594 190.759 293.445 187.679 293.511 184.631C293.874 167.777 300.733 152.126 312.852 140.528C324.839 129.062 340.536 122.95 357.025 123.312C359.63 123.362 362.268 123.592 364.857 123.988L364.362 127.233C361.905 126.854 359.416 126.64 356.942 126.591C341.328 126.261 326.472 132.044 315.128 142.901C303.652 153.889 297.139 168.733 296.792 184.713C296.727 187.596 296.875 190.512 297.238 193.379L293.973 193.774Z" fill="#231F20"/>
<path d="M359.217 241.915L359.168 238.636C372.886 238.422 385.945 233.051 395.921 223.529C406.622 213.314 412.706 199.509 413.036 184.632C413.382 169.574 407.792 155.258 397.322 144.302C390.826 137.514 382.664 132.374 373.694 129.442L374.717 126.328C384.181 129.425 392.821 134.862 399.68 142.028C410.76 153.61 416.663 168.767 416.3 184.698C415.938 200.448 409.507 215.077 398.163 225.885C387.578 235.984 373.744 241.667 359.184 241.898L359.217 241.915Z" fill="#231F20"/>
<path d="M358.328 233.693C357.866 233.693 357.405 233.693 356.943 233.677H356.514L356.63 230.382H357.025C369.359 230.761 381.098 226.23 390.101 217.696C399.252 209.047 404.463 197.3 404.809 184.631C405.155 171.781 400.423 159.524 391.503 150.133C382.451 140.611 370.183 135.174 356.943 134.828C343.521 134.499 330.743 139.425 320.949 148.733C311.023 158.173 305.367 170.941 305.037 184.714C304.889 190.793 305.796 196.823 307.741 202.605L304.625 203.643C302.547 197.498 301.591 191.089 301.74 184.631C302.102 169.985 308.104 156.394 318.673 146.344C329.094 136.443 342.713 131.155 357.009 131.55C371.123 131.912 384.198 137.712 393.861 147.876C403.391 157.909 408.436 170.99 408.074 184.73C407.711 198.272 402.121 210.843 392.344 220.101C383.044 228.915 370.991 233.71 358.311 233.71L358.328 233.693Z" fill="#231F20"/>
<path d="M358.327 225.457C357.866 225.457 357.387 225.457 356.926 225.44C355.079 225.374 353.216 225.193 351.402 224.88L351.963 221.651C353.644 221.931 355.359 222.112 357.041 222.178C367.165 222.524 376.827 218.867 384.28 211.882C391.865 204.781 396.234 195.094 396.564 184.632C396.91 173.973 393.035 163.792 385.665 155.95C378.163 147.976 367.956 143.413 356.942 143.067C345.714 142.721 335.013 146.807 326.785 154.566C318.425 162.441 313.627 173.15 313.297 184.731C313.149 190.02 313.94 195.242 315.672 200.267L312.572 201.338C310.709 195.951 309.851 190.333 310.016 184.632C310.379 172.194 315.54 160.662 324.542 152.177C333.413 143.825 344.972 139.426 357.058 139.788C368.962 140.151 379.977 145.093 388.072 153.693C396.036 162.161 400.224 173.183 399.862 184.715C399.499 196.066 394.767 206.56 386.539 214.254C378.789 221.503 368.83 225.457 358.344 225.457H358.327Z" fill="#231F20"/>
<path d="M358.262 217.218C357.817 217.218 357.355 217.218 356.91 217.185C353.645 217.053 350.43 216.427 347.363 215.324L348.468 212.226C351.221 213.215 354.123 213.775 357.058 213.907C364.824 214.253 372.656 211.37 378.46 206.015C384.396 200.546 387.991 192.737 388.32 184.582C388.65 176.246 385.55 167.926 379.829 161.731C373.975 155.405 365.632 151.599 356.926 151.27C348.039 150.94 339.168 154.252 332.606 160.364C325.796 166.69 321.872 175.339 321.542 184.697C321.344 190.513 322.581 196.378 325.153 201.633L322.202 203.083C319.399 197.333 318.03 190.941 318.244 184.582C318.607 174.335 322.911 164.878 330.363 157.959C337.569 151.27 347.281 147.629 357.042 147.991C366.605 148.354 375.789 152.539 382.236 159.491C388.551 166.311 391.964 175.504 391.602 184.697C391.239 193.709 387.265 202.358 380.686 208.404C374.586 214.022 366.473 217.185 358.262 217.185V217.218Z" fill="#231F20"/>
<path d="M358.262 208.998C357.8 208.998 357.338 208.998 356.876 208.965C350.561 208.602 344.576 205.719 340.438 201.057C336.431 196.526 334.337 190.53 334.716 184.582C335.079 178.816 337.75 173.363 342.037 169.623C346.192 165.999 351.666 164.137 357.074 164.516C362.301 164.879 367.231 167.333 370.595 171.238C373.843 175.01 375.475 179.953 375.08 184.813C374.701 189.492 372.475 193.89 368.946 196.856C365.566 199.706 361.131 201.123 356.811 200.727C352.672 200.349 348.797 198.322 346.225 195.175C343.752 192.177 342.565 188.273 342.96 184.5C343.339 180.892 345.153 177.58 347.923 175.373C350.545 173.281 353.925 172.325 357.173 172.737C360.24 173.132 363.027 174.73 364.84 177.119C366.539 179.376 367.264 182.226 366.836 184.912C366.44 187.432 365.038 189.689 363.01 191.09C361.114 192.391 358.789 192.885 356.629 192.424C354.634 191.996 352.903 190.793 351.913 189.113C350.99 187.564 350.759 185.752 351.287 184.137C351.765 182.655 352.82 181.485 354.172 180.925C355.426 180.414 356.794 180.513 357.849 181.188C358.888 181.847 359.465 182.984 359.333 184.104C359.185 185.34 358.163 186.279 356.975 186.279V183.001C356.464 183.001 356.118 183.363 356.069 183.726C356.052 183.874 356.085 183.973 356.118 183.989C355.97 183.89 355.706 183.857 355.409 183.989C354.964 184.17 354.601 184.599 354.42 185.142C354.189 185.867 354.304 186.707 354.749 187.449C355.277 188.338 356.217 188.981 357.322 189.212C358.608 189.492 359.993 189.179 361.147 188.388C362.45 187.498 363.34 186.032 363.604 184.385C363.901 182.556 363.389 180.628 362.235 179.08C360.966 177.383 358.971 176.263 356.778 175.982C354.403 175.686 351.93 176.394 349.984 177.926C347.907 179.574 346.538 182.095 346.241 184.829C345.928 187.745 346.852 190.744 348.764 193.083C350.792 195.554 353.843 197.152 357.124 197.449C360.586 197.778 364.131 196.625 366.852 194.335C369.721 191.93 371.535 188.355 371.832 184.533C372.145 180.529 370.793 176.46 368.122 173.363C365.319 170.117 361.229 168.075 356.86 167.778C352.309 167.449 347.709 169.03 344.213 172.078C340.586 175.258 338.311 179.887 338.014 184.78C337.684 189.854 339.481 194.994 342.911 198.882C346.472 202.902 351.633 205.373 357.074 205.686C362.697 205.999 368.369 204.006 372.639 200.2C377.042 196.263 379.746 190.579 380.059 184.582C380.389 178.421 378.163 172.21 373.959 167.564C369.639 162.786 363.406 159.854 356.876 159.541C350.149 159.195 343.422 161.649 338.393 166.229C333.216 170.925 330.066 177.679 329.753 184.747C329.539 189.327 330.511 193.956 332.556 198.108L329.605 199.558C327.329 194.912 326.241 189.739 326.472 184.599C326.835 176.674 330.38 169.08 336.183 163.808C341.856 158.651 349.44 155.9 357.041 156.262C364.428 156.625 371.485 159.936 376.399 165.373C381.18 170.661 383.703 177.729 383.34 184.763C382.978 191.617 379.878 198.124 374.816 202.638C370.249 206.724 364.28 208.998 358.245 208.998H358.262Z" fill="#231F20"/>
<path d="M209.107 300.679C183.484 267.615 169.552 226.412 169.848 184.648V183.1L173.146 183.149V184.665C172.833 225.687 186.535 266.181 211.713 298.67L209.107 300.679Z" fill="#231F20"/>
<path d="M200.137 90.1985L197.334 88.4851C197.911 87.5461 198.505 86.607 199.098 85.668L201.868 87.4308C201.291 88.3533 200.698 89.2759 200.137 90.1985Z" fill="#231F20"/>
<path d="M203.649 84.6803L200.912 82.868C202.132 81.0229 203.402 79.1777 204.688 77.3984L207.359 79.3095C206.106 81.0723 204.853 82.8845 203.649 84.6803Z" fill="#231F20"/>
<path d="M209.271 76.6735L206.633 74.713C209.271 71.171 212.058 67.6783 214.943 64.334L217.433 66.4757C214.597 69.7706 211.86 73.1974 209.271 76.6735Z" fill="#231F20"/>
<path d="M235.851 47.9413L233.691 45.4701C255.407 26.5406 281.64 12.7348 309.538 5.56836L310.363 8.74797C282.959 15.7827 257.187 29.3413 235.851 47.9413Z" fill="#231F20"/>
<path d="M425.665 8.15509C422.648 6.95244 419.548 5.81568 416.465 4.77778L417.52 1.66406C420.653 2.71844 423.819 3.88814 426.886 5.10727L425.682 8.15509H425.665Z" fill="#231F20"/>
<path d="M443.49 16.3092C441.561 15.3042 439.599 14.3158 437.637 13.3932L439.055 10.4277C441.05 11.3833 443.045 12.3882 445.007 13.4097L443.49 16.3257V16.3092Z" fill="#231F20"/>
<path d="M543.196 157.68C537.673 117.729 519.008 79.8864 490.614 51.1216C478.347 38.6997 464.431 28.0406 449.229 19.4243L450.844 16.5742C466.311 25.3388 480.474 36.1791 492.939 48.8152C521.827 78.0742 540.822 116.576 546.428 157.235L543.18 157.68H543.196Z" fill="#231F20"/>
<path d="M205.116 308.917C176.739 273.825 161.289 229.69 161.586 184.648C161.586 183.989 161.586 183.346 161.603 182.688L164.884 182.753C164.884 183.396 164.867 184.038 164.867 184.681C164.571 228.965 179.757 272.359 207.655 306.857L205.099 308.917H205.116Z" fill="#231F20"/>
<path d="M165.874 166.459L162.609 166.13C162.824 163.955 163.104 161.731 163.401 159.523L166.649 159.968C166.352 162.143 166.088 164.318 165.874 166.459Z" fill="#231F20"/>
<path d="M187.803 95.0917L184.918 93.5267C191.217 81.8296 198.752 70.7586 207.309 60.5938L209.816 62.7025C201.406 72.6862 194.003 83.5759 187.803 95.0753V95.0917Z" fill="#231F20"/>
<path d="M235.406 37.545L233.328 35.0079C252.834 19.1427 274.896 7.36333 298.936 0.015625L299.892 3.14582C276.264 10.3782 254.565 21.9599 235.406 37.545Z" fill="#231F20"/>
<path d="M552.726 169.888C549.494 123.034 529.51 78.7825 496.434 45.306C487.053 35.8001 476.648 27.2168 465.535 19.8032L467.365 17.0684C478.676 24.6138 489.246 33.3289 498.776 42.983C532.396 77.0197 552.726 122.012 556.007 169.657L552.726 169.888Z" fill="#231F20"/>
<path d="M198.736 314.138C169.172 277.581 153.047 231.6 153.36 184.664C153.36 182.588 153.426 180.496 153.492 178.42L156.773 178.535C156.691 180.578 156.658 182.621 156.641 184.664C156.344 230.842 172.19 276.098 201.292 312.063L198.736 314.122V314.138Z" fill="#231F20"/>
<path d="M157.679 165.505L154.414 165.176C154.645 162.985 154.909 160.777 155.206 158.586L158.454 159.031C158.157 161.189 157.91 163.347 157.679 165.522V165.505Z" fill="#231F20"/>
<path d="M174.795 102.72L171.811 101.353C172.272 100.348 172.734 99.3428 173.212 98.3379L176.18 99.7547C175.702 100.743 175.257 101.732 174.795 102.72Z" fill="#231F20"/>
<path d="M177.613 96.8226L174.678 95.3564C183.598 77.4649 195.09 61.0396 208.825 46.5254L211.216 48.7824C197.696 63.066 186.401 79.2276 177.629 96.8226H177.613Z" fill="#231F20"/>
<path d="M220.499 39.5716L218.273 37.1663C219.081 36.4085 219.906 35.6671 220.73 34.9258L222.923 37.364C222.115 38.0889 221.307 38.8303 220.499 39.5716Z" fill="#231F20"/>
<path d="M238.159 25.0256L236.213 22.3731C248.266 13.5427 261.341 6.03024 275.043 0.0664062L276.362 3.08127C262.875 8.94626 250.03 16.3269 238.159 25.0256Z" fill="#231F20"/>
<path d="M564.697 186.658L561.416 186.609C561.416 185.966 561.432 185.307 561.432 184.665C561.778 130.002 540.772 78.4359 502.271 39.4733C493.714 30.8076 484.316 22.8668 474.373 15.8651L476.269 13.1797C486.377 20.2968 495.923 28.3693 504.629 37.1668C543.74 76.7555 565.092 129.145 564.746 184.681C564.746 185.34 564.746 185.999 564.73 186.658H564.697Z" fill="#231F20"/>
<path d="M193.673 320.977C162.048 282.673 144.785 234.254 145.098 184.665V182.902L148.396 182.952V184.698C148.066 233.529 165.049 281.19 196.196 318.901L193.656 320.993L193.673 320.977Z" fill="#231F20"/>
<path d="M149.995 160.117L146.73 159.705C146.862 158.601 147.011 157.514 147.176 156.41L150.424 156.871C150.275 157.942 150.127 159.03 149.995 160.117Z" fill="#231F20"/>
<path d="M164.143 106.541L161.109 105.289C170.03 83.691 182.379 63.872 197.829 46.3594L200.302 48.534C185.1 65.783 172.948 85.2891 164.16 106.558L164.143 106.541Z" fill="#231F20"/>
<path d="M202.461 46.097L200.037 43.8894C202.576 41.1052 205.214 38.3539 207.902 35.7015C209.93 33.6916 212.024 31.7146 214.135 29.7871L216.344 32.2089C214.267 34.087 212.206 36.0475 210.21 38.0245C207.572 40.6275 204.967 43.3293 202.477 46.0806L202.461 46.097Z" fill="#231F20"/>
<path d="M236.759 15.8809L234.879 13.1955C241.21 8.76383 247.839 4.62868 254.616 0.921875L256.198 3.80494C249.537 7.46233 242.991 11.5316 236.759 15.8974V15.8809Z" fill="#231F20"/>
<path d="M569.66 180.168C568.836 124.994 546.972 72.9674 508.109 33.6423C497.226 22.6372 485.124 12.8018 472.131 4.39971L473.912 1.64844C487.102 10.1823 499.386 20.166 510.434 31.3358C549.907 71.254 572.1 124.088 572.941 180.119L569.66 180.168Z" fill="#231F20"/>
<path d="M189.369 328.653C177.168 314.304 166.846 298.422 158.668 281.47L161.619 280.053C169.666 296.758 179.839 312.409 191.859 326.544L189.353 328.67L189.369 328.653Z" fill="#231F20"/>
<path d="M149.699 260.036C141.455 237.004 137.151 212.918 136.871 188.486L140.152 188.453C140.433 212.539 144.687 236.246 152.799 258.948L149.699 260.052V260.036Z" fill="#231F20"/>
<path d="M141.817 159.079L138.553 158.667C138.833 156.476 139.13 154.285 139.476 152.094L142.724 152.604C142.395 154.763 142.081 156.921 141.817 159.079Z" fill="#231F20"/>
<path d="M150.193 120.809L147.061 119.821C156.162 91.0394 170.787 64.9106 190.557 42.1426L193.03 44.3008C173.557 66.7228 159.147 92.4727 150.177 120.809H150.193Z" fill="#231F20"/>
<path d="M195.206 41.8296L192.766 39.6385C195.75 36.3106 198.883 33.0156 202.065 29.869C205.148 26.8212 208.38 23.8228 211.645 20.9727L213.805 23.4439C210.59 26.261 207.424 29.21 204.373 32.2084C201.224 35.3056 198.141 38.5511 195.206 41.8296Z" fill="#231F20"/>
<path d="M223.896 15.1241L221.885 12.5211C227.112 8.4683 232.602 4.61322 238.175 1.05469L239.94 3.82243C234.449 7.33154 229.041 11.1207 223.896 15.1076V15.1241Z" fill="#231F20"/>
<path d="M581.054 191.849L577.772 191.717C577.855 189.344 577.921 186.972 577.921 184.649C578.267 125.587 555.546 69.8865 513.929 27.8102C506.509 20.3142 498.479 13.2795 490.07 6.92026L492.049 4.30078C500.59 10.7589 508.735 17.8924 516.254 25.5037C558.481 68.2061 581.548 124.731 581.202 184.666C581.202 187.021 581.136 189.427 581.037 191.849H581.054Z" fill="#231F20"/>
<path d="M186.418 337.83C176.871 327.088 168.297 315.408 160.943 303.085L163.763 301.404C171.018 313.546 179.46 325.078 188.875 335.655L186.418 337.83Z" fill="#231F20"/>
<path d="M136.425 245.194C136.145 244.123 135.864 243.052 135.584 241.981L138.766 241.174C139.03 242.228 139.31 243.283 139.591 244.337L136.425 245.194Z" fill="#231F20"/>
<path d="M134.793 238.751C133.013 231.238 131.595 223.561 130.572 215.917L133.82 215.488C134.826 223.017 136.211 230.596 137.976 237.993L134.777 238.751H134.793Z" fill="#231F20"/>
<path d="M128.708 192.77C128.642 190.563 128.609 188.355 128.609 186.131H131.891C131.891 188.306 131.924 190.497 131.99 192.671L128.708 192.77Z" fill="#231F20"/>
<path d="M134.248 153.528L131 153.05C131.165 151.963 131.33 150.859 131.511 149.771L134.759 150.299C134.594 151.37 134.413 152.457 134.265 153.528H134.248Z" fill="#231F20"/>
<path d="M135.882 143.858L132.65 143.248C138.092 114.78 148.743 87.9593 164.325 63.5273L167.095 65.2901C151.744 89.3596 141.224 115.802 135.866 143.858H135.882Z" fill="#231F20"/>
<path d="M182.445 44.0864L179.906 42.0106C180.599 41.1539 181.308 40.2972 182.017 39.457L184.54 41.5658C183.83 42.406 183.138 43.2462 182.445 44.0864Z" fill="#231F20"/>
<path d="M193.244 31.8134L190.854 29.5564C192.601 27.7112 194.415 25.8496 196.245 24.0538C199.131 21.2037 202.148 18.3865 205.165 15.7012L207.342 18.1559C204.358 20.8083 201.39 23.5761 198.554 26.3932C196.756 28.1725 194.976 29.9847 193.244 31.8134Z" fill="#231F20"/>
<path d="M209.8 15.9967L207.656 13.5091C213.081 8.83025 218.802 4.36561 224.656 0.230469L226.552 2.91584C220.781 7.00156 215.142 11.4003 209.8 16.0132V15.9967Z" fill="#231F20"/>
<path d="M584.45 155.34C578.267 105.273 555.299 57.9251 519.766 22.0103C516.782 18.9954 513.698 16.0464 510.582 13.2293L512.791 10.791C515.957 13.6576 519.09 16.656 522.107 19.7038C558.151 56.1294 581.466 104.153 587.715 154.945L584.45 155.34Z" fill="#231F20"/>
<path d="M201.984 364.782C201.143 364.057 200.319 363.332 199.494 362.591L201.687 360.152C202.495 360.877 203.319 361.602 204.144 362.311L201.984 364.782Z" fill="#231F20"/>
<path d="M187.524 351.108C176.741 340.02 166.996 327.829 158.57 314.863L161.324 313.084C169.634 325.868 179.23 337.895 189.865 348.834L187.508 351.124L187.524 351.108Z" fill="#231F20"/>
<path d="M120.365 186.23V184.665C120.398 179.673 120.58 174.632 120.926 169.656L124.207 169.887C123.861 174.796 123.679 179.772 123.646 184.681V186.23H120.365Z" fill="#231F20"/>
<path d="M129.451 134.303L126.252 133.578C132.171 107.564 142.378 82.918 156.574 60.3477L159.361 62.094C145.362 84.3513 135.288 108.651 129.451 134.303Z" fill="#231F20"/>
<path d="M172.503 43.3445L169.914 41.3345C173.294 36.9852 176.872 32.6853 180.549 28.5996L182.989 30.7907C179.362 34.827 175.85 39.061 172.503 43.3445Z" fill="#231F20"/>
<path d="M185.182 28.3522L182.758 26.1281C185.231 23.4428 187.803 20.7903 190.392 18.2203C196.427 12.2564 202.857 6.57268 209.486 1.30078L211.53 3.87083C204.984 9.06036 198.653 14.6782 192.7 20.5597C190.145 23.0803 187.605 25.7163 185.165 28.3522H185.182Z" fill="#231F20"/>
<path d="M592.776 155.555C586.758 104.549 563.822 56.0149 528.207 18.8809L530.581 16.6074C566.691 54.2521 589.923 103.462 596.04 155.176L592.776 155.555Z" fill="#231F20"/>
<path d="M194.301 369.001C190.475 365.591 186.716 362.032 183.105 358.391C176.328 351.554 169.898 344.24 163.979 336.645L166.567 334.635C172.404 342.114 178.752 349.33 185.43 356.085C188.991 359.676 192.701 363.202 196.477 366.563L194.284 369.017L194.301 369.001Z" fill="#231F20"/>
<path d="M115.502 179.162L112.221 179.063C112.435 171.353 113.029 163.56 113.968 155.916L117.233 156.328C116.293 163.873 115.716 171.55 115.502 179.162Z" fill="#231F20"/>
<path d="M121.123 133.758L117.908 133.049C123.926 105.916 134.446 80.2151 149.154 56.6562L151.94 58.3861C137.431 81.6319 127.043 106.986 121.107 133.758H121.123Z" fill="#231F20"/>
<path d="M159.195 47.4803L156.508 45.6022C161.57 38.3863 167.093 31.3681 172.93 24.7617L175.404 26.9364C169.666 33.4604 164.208 40.3797 159.212 47.4968L159.195 47.4803Z" fill="#231F20"/>
<path d="M179.774 22.0588L177.367 19.8183C178.126 19.011 178.884 18.2037 179.643 17.3965L182.017 19.67C181.258 20.4608 180.516 21.2516 179.774 22.0588Z" fill="#231F20"/>
<path d="M184.308 17.3306L181.967 15.0406C182.824 14.1509 183.698 13.2778 184.588 12.4211C188.414 8.6484 192.42 4.9416 196.477 1.41602L198.62 3.90369C194.613 7.37985 190.656 11.0208 186.88 14.7605C186.006 15.6172 185.149 16.4739 184.292 17.347L184.308 17.3306Z" fill="#231F20"/>
<path d="M600.789 153.033C594.507 102.604 573.138 56.0139 538.957 18.3033L541.397 16.0957C576.023 54.317 597.689 101.533 604.053 152.638L600.789 153.05V153.033Z" fill="#231F20"/>
<path d="M107.406 174.928L104.125 174.78C104.323 170.398 104.636 165.933 105.065 161.551L108.33 161.864C107.917 166.197 107.604 170.595 107.406 174.928Z" fill="#231F20"/>
<path d="M112.913 132.785L109.697 132.093C118.189 93.1966 136.062 56.3757 161.339 25.6504L163.878 27.7427C138.915 58.0726 121.289 94.3992 112.913 132.785Z" fill="#231F20"/>
<path d="M165.973 25.2231L163.467 23.0978C168.298 17.3976 173.426 11.8292 178.752 6.57373L179.576 5.75L181.868 8.0894L181.043 8.89666C175.8 14.0862 170.722 19.5723 165.957 25.2066L165.973 25.2231Z" fill="#231F20"/>
<path d="M601.697 115.653C592.282 81.682 576.239 50.5778 553.996 23.1969L556.552 21.1211C579.075 48.848 595.333 80.3641 604.863 114.78L601.697 115.653Z" fill="#231F20"/>
<path d="M99.3925 170.348L96.1113 170.15C96.3751 165.751 96.7544 161.303 97.249 156.938L100.514 157.3C100.036 161.616 99.6563 165.999 99.3925 170.348Z" fill="#231F20"/>
<path d="M103.449 137.877L100.217 137.267C109.154 90.2484 130.852 46.6399 162.939 11.1699L165.379 13.3775C133.688 48.4027 112.27 91.4511 103.449 137.877Z" fill="#231F20"/>
<path d="M91.2304 168.766L87.9492 168.552C91.4942 113.823 111.346 62.1914 145.362 19.209L147.934 21.2518C114.347 63.7071 94.7425 114.713 91.2304 168.783V168.766Z" fill="#231F20"/>
<path d="M149.995 18.6821L147.439 16.6228C148.824 14.9094 150.242 13.2125 151.677 11.5156L154.183 13.6409C152.765 15.3048 151.364 16.9852 149.995 18.6821Z" fill="#231F20"/>
<path d="M83.0859 166.954L79.8047 166.723C83.597 112.126 103.235 60.3625 136.591 17.0176L139.196 19.011C106.236 61.8452 86.8288 112.999 83.0694 166.937L83.0859 166.954Z" fill="#231F20"/>
<path d="M141.223 16.4408L138.65 14.4144C140.019 12.6845 141.404 10.9547 142.822 9.25781L145.361 11.3501C143.96 13.0305 142.591 14.7274 141.239 16.4408H141.223Z" fill="#231F20"/>
<path d="M75.8799 155.175L72.6152 154.812C77.5618 109.771 93.4072 65.9974 118.453 28.2539L121.19 30.0661C96.441 67.3813 80.7605 110.644 75.8799 155.175Z" fill="#231F20"/>
<path d="M123.004 27.348L120.283 25.5029C122.13 22.7846 124.059 20.0498 126.021 17.3809L128.676 19.3249C126.747 21.9773 124.834 24.6791 123.004 27.348Z" fill="#231F20"/>
<path d="M67.8174 153.05L64.5527 152.671C64.8001 150.48 65.0804 148.289 65.3772 146.098L68.6254 146.542C68.3286 148.701 68.0648 150.875 67.8174 153.05Z" fill="#231F20"/>
<path d="M69.5978 140.069L66.3496 139.558C72.879 98.783 87.5867 60.5782 110.093 25.9648L112.847 27.7441C90.6041 61.962 76.0448 99.755 69.5813 140.069H69.5978Z" fill="#231F20"/>
<path d="M61.09 141.055L57.8418 140.561C64.0415 99.7862 78.2545 61.3672 100.069 26.375L102.855 28.1048C81.2884 62.7182 67.2237 100.725 61.09 141.055Z" fill="#231F20"/>
<path d="M53.636 135.454L50.4043 134.91C50.5857 133.823 50.767 132.736 50.9649 131.648L54.1966 132.225C53.9988 133.296 53.8174 134.383 53.636 135.454Z" fill="#231F20"/>
<path d="M56.0766 122.572L52.8613 121.897C59.9678 88.2556 72.532 56.2288 90.1912 26.7227L93.0107 28.4031C75.5329 57.5962 63.1007 89.277 56.0766 122.572Z" fill="#231F20"/>
<path d="M51.1803 107.366L47.998 106.542C48.2784 105.471 48.5587 104.4 48.839 103.346L52.0047 104.202C51.7244 105.257 51.4441 106.311 51.1638 107.366H51.1803Z" fill="#231F20"/>
<path d="M64.5515 66.953L61.5176 65.7174C67.338 51.4503 74.2631 37.4798 82.0952 24.2012L84.9312 25.8651C77.1816 38.9954 70.3224 52.8177 64.5515 66.953Z" fill="#231F20"/>
<path d="M60.5282 55.3705L57.5273 54.0525C61.9792 43.9865 66.9917 34.0358 72.4164 24.4805L75.2689 26.1115C69.8937 35.5679 64.9307 45.4198 60.5282 55.387V55.3705Z" fill="#231F20"/>
<path d="M52.665 52.7676L49.6641 51.4496C54.083 41.3836 59.0625 31.4164 64.4542 21.8281L67.3232 23.4426C61.9809 32.9321 57.0509 42.8004 52.6814 52.7676H52.665Z" fill="#231F20"/>
<path d="M43.5291 53.1307L40.5117 51.8457C44.3865 42.7352 48.69 33.6906 53.3397 24.959L56.2417 26.4911C51.6414 35.1403 47.3709 44.1026 43.5291 53.1142V53.1307Z" fill="#231F20"/>
<path d="M32.0044 59.5559L28.9375 58.3697C32.9277 48.1225 37.462 37.9576 42.4086 28.1387L45.3435 29.6049C40.4464 39.3415 35.9616 49.4075 32.0044 59.5559Z" fill="#231F20"/>
<path d="M21.8958 62.967L18.8125 61.8302C22.2256 52.555 26.0839 43.2962 30.2555 34.334L33.2399 35.7179C29.1013 44.5977 25.2925 53.7741 21.9123 62.967H21.8958Z" fill="#231F20"/>
<path d="M13.0256 63.28L9.92578 62.1762C10.305 61.1383 10.6678 60.1004 11.047 59.0625L14.1303 60.1993C13.7511 61.2207 13.3719 62.2586 13.0091 63.28H13.0256Z" fill="#231F20"/>
<path d="M15.2856 57.1172L12.2188 55.9639C13.7687 51.8617 15.4175 47.7266 17.1158 43.6738L20.1497 44.9424C18.4679 48.9622 16.819 53.0644 15.2856 57.1336V57.1172Z" fill="#231F20"/>
<path d="M22.7372 38.9129L19.7363 37.5949C20.1815 36.59 20.6267 35.585 21.0884 34.5801L24.0893 35.931C23.6441 36.936 23.1989 37.9244 22.7537 38.9294L22.7372 38.9129Z" fill="#231F20"/>
<path d="M3.11632 66.6729L0 65.6185C0.346257 64.5806 0.709003 63.5262 1.07175 62.4883L4.17158 63.5591C3.80883 64.597 3.46257 65.6349 3.11632 66.6564V66.6729Z" fill="#231F20"/>
</g>
<defs>
<clipPath id="clip0_37_1628">
<rect width="554" height="369" fill="white"/>
</clipPath>
</defs>
</svg>
